<svg width="23" height="22" fill="none" xmlns="http://www.w3.org/2000/svg"><path d="M22.283 11.253c0-.748-.061-1.5-.19-2.235H11.717v4.236h5.942a5.091 5.091 0 0 1-2.2 3.342v2.749h3.546c2.081-1.916 3.278-4.745 3.278-8.092Z" fill="#4285F4"/><path d="M11.718 22c2.966 0 5.468-.974 7.291-2.655l-3.545-2.749c-.986.671-2.259 1.051-3.742 1.051-2.87 0-5.303-1.936-6.176-4.539H1.888v2.833a11.001 11.001 0 0 0 9.83 6.06Z" fill="#34A853"/><path d="M5.542 13.109a6.589 6.589 0 0 1 0-4.212V6.064H1.888a11.01 11.01 0 0 0 0 9.878l3.654-2.833Z" fill="#FBBC04"/><path d="M11.718 4.354a5.978 5.978 0 0 1 4.22 1.649l3.14-3.14A10.572 10.572 0 0 0 11.718 0c-4.16 0-7.963 2.344-9.83 6.063l3.654 2.833c.869-2.607 3.306-4.543 6.176-4.543Z" fill="#EA4335"/></svg>